<?xml version="1.0" encoding="UTF-8" standalone="no"?><!DOCTYPE svg PUBLIC "-//W3C//DTD SVG 1.1//EN" "http://www.w3.org/Graphics/SVG/1.1/DTD/svg11.dtd"><svg width="100%" height="100%" viewBox="0 0 200 200" version="1.1" xmlns="http://www.w3.org/2000/svg" xmlns:xlink="http://www.w3.org/1999/xlink" xml:space="preserve" xmlns:serif="http://www.serif.com/" style="fill-rule:evenodd;clip-rule:evenodd;stroke-linecap:round;stroke-linejoin:round;stroke-miterlimit:1.5;"><rect id="Icon" x="0" y="0" width="200" height="200" style="fill:none;"/><clipPath id="_clip1"><rect id="Icon1" serif:id="Icon" x="0" y="0" width="200" height="200"/></clipPath><g clip-path="url(#_clip1)"><rect x="-0" y="0" width="200" height="200" style="fill:#48064c;"/><rect x="-0" y="0" width="50" height="200" style="fill:#2c042f;"/><rect x="76.245" y="49.198" width="103.772" height="128.722" style="fill:#0f6cb3;stroke:#fff;stroke-width:4.41px;"/><rect x="62.686" y="35.639" width="103.772" height="128.722" style="fill:#0f6cb3;stroke:#fff;stroke-width:4.41px;"/><rect x="77.884" y="99.516" width="73.374" height="14.043" style="fill:#fff;"/><rect x="77.884" y="121.044" width="73.374" height="14.043" style="fill:#fff;"/><rect x="77.884" y="142.572" width="73.374" height="14.043" style="fill:#fff;"/><clipPath id="_clip2"><rect id="check-circle.svg" x="87.026" y="41.147" width="55.092" height="55.092"/></clipPath><g clip-path="url(#_clip2)"><circle id="circle22" cx="114.572" cy="68.693" r="23.323" style="fill:none;stroke:#fff;stroke-width:8.22px;stroke-linecap:butt;stroke-linejoin:miter;stroke-miterlimit:10;"/><path id="polyline24" d="M101.844,68.693l8.485,8.485l16.97,-16.97" style="fill:none;fill-rule:nonzero;stroke:#fff;stroke-width:8.22px;stroke-linecap:butt;stroke-linejoin:miter;stroke-miterlimit:10;"/></g><path d="M24.437,120.922c3.862,-0 7.088,0.723 9.676,2.168c2.588,1.445 4.534,3.542 5.84,6.29c1.306,2.749 1.959,6.063 1.959,9.943l-0,9.566l-34.293,-0l0,-10.603c0,-3.565 0.637,-6.644 1.912,-9.236c1.274,-2.591 3.159,-4.594 5.653,-6.008c2.494,-1.413 5.578,-2.12 9.253,-2.12Zm0.164,5.89c-2.814,0 -5.129,0.444 -6.943,1.331c-1.814,0.888 -3.162,2.192 -4.046,3.911c-0.883,1.72 -1.325,3.837 -1.325,6.35l-0,4.83l24.91,0l0,-4.005c0,-4.163 -1.055,-7.273 -3.167,-9.33c-2.111,-2.058 -5.254,-3.087 -9.429,-3.087Z" style="fill:#fff;fill-rule:nonzero;"/><path d="M28.87,91c2.158,-0 4.074,0.283 5.747,0.848c1.673,0.565 3.084,1.39 4.234,2.474c1.149,1.084 2.025,2.387 2.627,3.911c0.602,1.524 0.903,3.243 0.903,5.16c-0,1.79 -0.301,3.432 -0.903,4.924c-0.602,1.492 -1.478,2.784 -2.627,3.876c-1.15,1.091 -2.561,1.936 -4.234,2.533c-1.673,0.596 -3.589,0.895 -5.747,0.895c-2.861,-0 -5.289,-0.499 -7.283,-1.496c-1.994,-0.998 -3.514,-2.423 -4.562,-4.277c-1.048,-1.853 -1.572,-4.06 -1.572,-6.62c0,-2.403 0.524,-4.524 1.572,-6.362c1.048,-1.837 2.572,-3.275 4.574,-4.311c2.001,-1.037 4.425,-1.555 7.271,-1.555Zm0,18.919c1.892,0 3.511,-0.232 4.856,-0.695c1.344,-0.463 2.373,-1.182 3.084,-2.156c0.711,-0.974 1.067,-2.23 1.067,-3.769c0,-1.54 -0.356,-2.796 -1.067,-3.77c-0.711,-0.974 -1.74,-1.689 -3.084,-2.144c-1.345,-0.456 -2.964,-0.684 -4.856,-0.684c-1.892,0 -3.499,0.228 -4.82,0.684c-1.321,0.455 -2.33,1.17 -3.026,2.144c-0.696,0.974 -1.044,2.238 -1.044,3.793c0,2.293 0.767,3.966 2.299,5.019c1.533,1.052 3.73,1.578 6.591,1.578Z" style="fill:#fff;fill-rule:nonzero;"/><path d="M41.912,71.539l-34.293,-0l0,-5.655l34.293,-0l-0,5.655Z" style="fill:#fff;fill-rule:nonzero;"/><path d="M37.924,47.671c0,-0.722 -0.066,-1.437 -0.199,-2.144c-0.133,-0.706 -0.293,-1.35 -0.481,-1.932l4.175,0c0.266,0.613 0.493,1.406 0.68,2.38c0.188,0.974 0.282,1.987 0.282,3.039c-0,1.477 -0.247,2.804 -0.739,3.982c-0.493,1.178 -1.341,2.113 -2.545,2.804c-1.204,0.691 -2.869,1.037 -4.996,1.037l-13.956,-0l-0,3.557l-2.463,0l-1.947,-3.817l-5.559,-1.814l-0,-3.487l5.77,0l0,-7.469l4.199,0l-0,7.469l13.885,0c1.314,0 2.291,-0.33 2.932,-0.989c0.642,-0.66 0.962,-1.532 0.962,-2.616Z" style="fill:#fff;fill-rule:nonzero;"/></g></svg>