<?xml version="1.0" encoding="UTF-8" standalone="no"?>
<!DOCTYPE svg PUBLIC "-//W3C//DTD SVG 1.1//EN" "http://www.w3.org/Graphics/SVG/1.1/DTD/svg11.dtd">
<svg width="100%" height="100%" viewBox="0 0 448 512" version="1.1" xmlns="http://www.w3.org/2000/svg" xmlns:xlink="http://www.w3.org/1999/xlink" xml:space="preserve" xmlns:serif="http://www.serif.com/" style="fill-rule:evenodd;clip-rule:evenodd;stroke-linejoin:round;stroke-miterlimit:2;">
    <path d="M152,24C152,10.7 141.3,0 128,0C114.7,0 104,10.7 104,24L104,64L64,64C28.7,64 0,92.7 0,128L0,448C0,483.3 28.7,512 64,512L384,512C419.3,512 448,483.3 448,448L448,128C448,92.7 419.3,64 384,64L344,64L344,24C344,10.7 333.3,0 320,0C306.7,0 296,10.7 296,24L296,64L152,64L152,24ZM48,192L400,192L400,448C400,456.8 392.8,464 384,464L64,464C55.2,464 48,456.8 48,448L48,192ZM224,232C210.7,232 200,242.7 200,256L200,304L152,304C138.7,304 128,314.7 128,328C128,341.3 138.7,352 152,352L200,352L200,400C200,413.3 210.7,424 224,424C237.3,424 248,413.3 248,400L248,352L296,352C309.3,352 320,341.3 320,328C320,314.7 309.3,304 296,304L248,304L248,256C248,242.7 237.3,232 224,232Z" style="fill:white;fill-rule:nonzero;"/>
</svg>
