<?xml version="1.0" encoding="UTF-8" standalone="no"?>
<!DOCTYPE svg PUBLIC "-//W3C//DTD SVG 1.1//EN" "http://www.w3.org/Graphics/SVG/1.1/DTD/svg11.dtd">
<svg width="100%" height="100%" viewBox="0 0 24 24" version="1.1" xmlns="http://www.w3.org/2000/svg" xmlns:xlink="http://www.w3.org/1999/xlink" xml:space="preserve" xmlns:serif="http://www.serif.com/" style="fill-rule:evenodd;clip-rule:evenodd;stroke-miterlimit:10;">
    <g id="Clipboard">
        <path d="M20.59,2.45L20.59,22.5L3.41,22.5L3.41,2.5L8.18,2.5L8.18,3.5C8.185,4.546 9.044,5.405 10.09,5.41L13.91,5.41C14.956,5.405 15.815,4.546 15.82,3.5L15.82,2.5L20.59,2.45Z" style="fill:none;fill-rule:nonzero;stroke:white;stroke-width:1.5px;"/>
        <path d="M9.14,10.09L14.86,10.09" style="fill:none;fill-rule:nonzero;stroke:white;stroke-width:1.5px;"/>
        <path d="M12,7.23L12,12.95" style="fill:none;fill-rule:nonzero;stroke:white;stroke-width:1.5px;"/>
        <path d="M6.27,18.68L17.73,18.68" style="fill:none;fill-rule:nonzero;stroke:white;stroke-width:1.5px;"/>
        <path d="M6.27,14.86L17.73,14.86" style="fill:none;fill-rule:nonzero;stroke:white;stroke-width:1.5px;"/>
        <path d="M15.82,1.5L15.82,3.41C15.815,4.456 14.956,5.315 13.91,5.32L10.09,5.32C9.044,5.315 8.185,4.456 8.18,3.41L8.18,1.5L15.82,1.5Z" style="fill:none;fill-rule:nonzero;stroke:white;stroke-width:1.5px;"/>
    </g>
</svg>
