<?xml version="1.0" encoding="UTF-8" standalone="no"?>
<!DOCTYPE svg PUBLIC "-//W3C//DTD SVG 1.1//EN" "http://www.w3.org/Graphics/SVG/1.1/DTD/svg11.dtd">
<svg width="100%" height="100%" viewBox="0 0 24 24" version="1.1" xmlns="http://www.w3.org/2000/svg" xmlns:xlink="http://www.w3.org/1999/xlink" xml:space="preserve" xmlns:serif="http://www.serif.com/" style="fill-rule:evenodd;clip-rule:evenodd;stroke-miterlimit:10;">
    <path d="M16.88,22.5L7.12,22.5C6.114,22.501 5.273,21.704 5.22,20.7L4.36,5.32L19.64,5.32L18.78,20.7C18.727,21.704 17.886,22.501 16.88,22.5Z" style="fill:none;fill-rule:nonzero;stroke:white;stroke-width:1.5px;"/>
    <path d="M2.45,5.32L21.55,5.32" style="fill:none;fill-rule:nonzero;stroke:white;stroke-width:1.5px;"/>
    <path d="M10.09,1.5L13.91,1.5C14.958,1.5 15.82,2.362 15.82,3.41L15.82,5.32L8.18,5.32L8.18,3.41C8.18,2.362 9.042,1.5 10.09,1.5Z" style="fill:none;fill-rule:nonzero;stroke:white;stroke-width:1.5px;"/>
    <path d="M12,8.18L12,19.64" style="fill:none;fill-rule:nonzero;stroke:white;stroke-width:1.5px;"/>
    <path d="M15.82,8.18L15.82,19.64" style="fill:none;fill-rule:nonzero;stroke:white;stroke-width:1.5px;"/>
    <path d="M8.18,8.18L8.18,19.64" style="fill:none;fill-rule:nonzero;stroke:white;stroke-width:1.5px;"/>
</svg>
